<?xml version="1.0" encoding="utf-8"?>
<!-- Generator: Adobe Illustrator 26.2.1, SVG Export Plug-In . SVG Version: 6.00 Build 0)  -->
<svg version="1.1" id="Layer_1" xmlns="http://www.w3.org/2000/svg" xmlns:xlink="http://www.w3.org/1999/xlink" x="0px" y="0px"
	 viewBox="0 0 1205.66 523.33" style="enable-background:new 0 0 1205.66 523.33;" xml:space="preserve">
<style type="text/css">
	.st0{fill:#FE711A;}
	.st1{fill:#240555;}
	.st2{fill:#FFFFFF;}
	.st3{fill:url(#SVGID_1_);}
	.st4{fill:url(#SVGID_00000003824498081626325520000007859769273847479953_);}
	.st5{fill:url(#SVGID_00000093158834973766991100000012686372842043199127_);}
	.st6{fill:url(#SVGID_00000119800410639677994860000015008483675812530873_);}
	.st7{fill:#5A5A5A;}
	.st8{fill:#D2D2D2;}
	.st9{fill:#FF0000;}
	.st10{fill:url(#SVGID_00000021830724371511970250000002386524004657729174_);}
	.st11{fill:url(#SVGID_00000067211995898817288970000009207799532343814309_);}
	.st12{fill:url(#SVGID_00000168821901649376864400000006384772373330028689_);}
	.st13{fill:url(#SVGID_00000135684156964885202480000009743662867849547403_);}
	.st14{fill:url(#SVGID_00000068644785881477175350000000075063444520666772_);}
	.st15{fill:url(#SVGID_00000101825306093007508460000014394842488910865324_);}
	.st16{fill:url(#SVGID_00000105412521936421251030000016430001166464705953_);}
	.st17{fill:url(#SVGID_00000121253388428861043560000017708821318510361528_);}
	.st18{fill:url(#SVGID_00000050646311490451963340000007682551925343445400_);}
	.st19{fill:url(#SVGID_00000031903320956826977390000012612917461861174667_);}
	.st20{fill:url(#SVGID_00000000183356845491278200000017024027675444932273_);}
	.st21{fill:url(#SVGID_00000047757727167773238570000015926228457319816096_);}
	.st22{fill:url(#SVGID_00000143613504829937039550000005104788159985815968_);}
	.st23{fill:url(#SVGID_00000177468697251828273320000009640953533366885552_);}
	.st24{fill:url(#SVGID_00000147915625692367733020000012482175872981043383_);}
	.st25{fill:url(#SVGID_00000052100785141208090140000002020412942712774033_);}
	.st26{fill:url(#SVGID_00000071532598728581113740000008781012776048839049_);}
	.st27{fill:url(#SVGID_00000066487883899769048200000004224652644205985451_);}
	.st28{fill:url(#SVGID_00000159445089700091213350000003545699591698013351_);}
	.st29{fill:url(#SVGID_00000048472433760607542970000012161584789912992690_);}
	.st30{fill:url(#SVGID_00000047778050831736421440000009975810425702606501_);}
	.st31{fill:url(#SVGID_00000135682850656749646650000015589059058376278205_);}
	.st32{fill:url(#SVGID_00000058590747125496567590000013781271637137077649_);}
	.st33{fill:url(#SVGID_00000158737160373433743370000016005201077958260870_);}
	.st34{fill:url(#SVGID_00000129197434008430191330000011314998321628341422_);}
	.st35{fill:url(#SVGID_00000119822549127552545290000010495524900315980952_);}
	.st36{fill:url(#SVGID_00000006685383952344052900000009281873088498230196_);}
	.st37{fill:url(#SVGID_00000159469311249659724800000005810452956220793478_);}
	.st38{fill:url(#SVGID_00000127750229928018800610000008873531475547377814_);}
	.st39{fill:url(#SVGID_00000124134748325525469780000015387675419976612258_);}
	.st40{fill:url(#SVGID_00000133505471686563919160000009277048416169666731_);}
	.st41{fill:url(#SVGID_00000065758669233491251780000011993266734530581147_);}
	.st42{fill:url(#SVGID_00000013189454963847415180000016220460411219081120_);}
	.st43{fill:url(#SVGID_00000170989762769647720900000015015756877738836132_);}
	.st44{fill:url(#SVGID_00000000202907436182247040000001974114948781944475_);}
	.st45{fill:url(#SVGID_00000022533300482872276600000005457707394492729733_);}
	.st46{fill:url(#SVGID_00000067220564026847696930000011604237362520348311_);}
	.st47{fill:url(#SVGID_00000021101609740395641470000010316037828011227064_);}
	.st48{fill:url(#SVGID_00000099654250145609933890000001121482776592282810_);}
	.st49{fill:url(#SVGID_00000007407908348771809770000007839224410527057331_);}
	.st50{fill:url(#SVGID_00000049904469278255451340000008807792413363617153_);}
	.st51{fill:url(#SVGID_00000142861512933921881640000011439855384967845807_);}
</style>
<g>
	<path class="st1" d="M434.11,308.75c-1.04,0-1.99-0.38-2.84-1.15c-0.85-0.77-1.27-1.72-1.27-2.87c0-0.51,0.13-1.08,0.39-1.72
		l47.14-123.35c0.39-1.27,1.14-2.39,2.25-3.35c1.11-0.96,2.64-1.43,4.6-1.43h21.32c1.96,0,3.45,0.48,4.5,1.43
		c1.04,0.96,1.82,2.07,2.35,3.35l47.14,123.35c0.13,0.64,0.2,1.21,0.2,1.72c0,1.15-0.39,2.1-1.17,2.87
		c-0.78,0.76-1.7,1.15-2.74,1.15h-17.02c-1.83,0-3.16-0.41-4.01-1.24c-0.85-0.83-1.4-1.63-1.66-2.39l-9.19-23.33h-58.09l-9.19,23.33
		c-0.26,0.76-0.82,1.56-1.66,2.39c-0.85,0.83-2.18,1.24-4.01,1.24H434.11z M472.84,259.79h44.4l-22.3-59.09L472.84,259.79z"/>
	<path class="st1" d="M626.18,310.67c-12,0-22.2-2.04-30.61-6.12c-8.41-4.08-14.93-9.98-19.56-17.69
		c-4.63-7.71-7.14-16.92-7.53-27.63c-0.13-5.48-0.2-11.38-0.2-17.69s0.06-12.27,0.2-17.88c0.39-10.58,2.9-19.63,7.53-27.16
		c4.63-7.52,11.21-13.32,19.75-17.4c8.54-4.08,18.68-6.12,30.41-6.12c9.52,0,17.86,1.24,25.04,3.73c7.17,2.49,13.13,5.67,17.9,9.56
		c4.76,3.89,8.34,8.07,10.76,12.53c2.41,4.46,3.68,8.61,3.81,12.43c0.13,1.15-0.2,2.1-0.98,2.87c-0.78,0.76-1.83,1.15-3.13,1.15
		h-20.15c-1.3,0-2.28-0.25-2.93-0.76c-0.65-0.51-1.24-1.27-1.76-2.3c-1.04-2.68-2.67-5.32-4.89-7.94c-2.22-2.61-5.22-4.81-9-6.6
		c-3.78-1.78-8.67-2.68-14.67-2.68c-8.87,0-15.94,2.3-21.22,6.89c-5.28,4.59-8.12,12.18-8.51,22.76c-0.39,11.09-0.39,22.31,0,33.66
		c0.39,10.84,3.29,18.62,8.7,23.33c5.41,4.72,12.55,7.08,21.42,7.08c5.87,0,11.12-1.02,15.75-3.06c4.63-2.04,8.28-5.23,10.95-9.56
		c2.67-4.33,4.01-9.88,4.01-16.64v-5.93h-23.86c-1.3,0-2.41-0.45-3.32-1.34c-0.91-0.89-1.37-2.04-1.37-3.44v-10.14
		c0-1.4,0.46-2.55,1.37-3.44c0.91-0.89,2.02-1.34,3.32-1.34h46.75c1.43,0,2.57,0.45,3.42,1.34c0.85,0.89,1.27,2.04,1.27,3.44v20.08
		c0,10.71-2.38,19.95-7.14,27.73c-4.76,7.78-11.54,13.77-20.34,17.98C648.57,308.56,638.17,310.67,626.18,310.67z"/>
	<path class="st1" d="M710.87,308.75c-1.3,0-2.35-0.38-3.13-1.15c-0.78-0.77-1.17-1.78-1.17-3.06v-9.18c0-1.27,0.39-2.32,1.17-3.16
		c0.78-0.83,1.82-1.24,3.13-1.24h9.39c1.3,0,2.38,0.42,3.23,1.24c0.85,0.83,1.27,1.88,1.27,3.16v9.18c0,1.28-0.43,2.3-1.27,3.06
		c-0.85,0.76-1.93,1.15-3.23,1.15H710.87z"/>
	<path class="st1" d="M750.96,308.75c-1.31,0-2.35-0.38-3.13-1.15c-0.78-0.77-1.17-1.78-1.17-3.06V177.18c0-1.27,0.39-2.3,1.17-3.06
		c0.78-0.76,1.82-1.15,3.13-1.15h3.32c1.3,0,2.35,0.38,3.13,1.15c0.78,0.77,1.17,1.79,1.17,3.06v127.37c0,1.28-0.39,2.3-1.17,3.06
		c-0.78,0.76-1.83,1.15-3.13,1.15H750.96z"/>
	<path class="st1" d="M815.51,310.67c-6.26,0-12.03-1.28-17.31-3.82c-5.28-2.55-9.55-5.96-12.81-10.23
		c-3.26-4.27-4.89-9.08-4.89-14.44c0-8.67,3.59-15.62,10.76-20.85c7.17-5.23,16.49-8.61,27.97-10.14l30.9-4.21v-6.69
		c0-6.76-2.12-12.08-6.36-15.97c-4.24-3.89-10.99-5.83-20.24-5.83c-6.78,0-12.26,1.31-16.43,3.92c-4.17,2.61-7.04,6.02-8.61,10.23
		c-0.65,1.91-1.89,2.87-3.72,2.87h-3.13c-1.56,0-2.67-0.41-3.32-1.24c-0.65-0.83-0.98-1.82-0.98-2.96c0-1.78,0.69-4.02,2.05-6.69
		c1.37-2.68,3.49-5.32,6.36-7.94c2.87-2.61,6.58-4.81,11.15-6.6c4.56-1.78,10.1-2.68,16.63-2.68c7.69,0,14.05,1.02,19.07,3.06
		c5.02,2.04,8.93,4.69,11.74,7.94c2.8,3.25,4.79,6.85,5.96,10.81c1.17,3.95,1.76,7.84,1.76,11.67v63.68c0,1.28-0.39,2.3-1.17,3.06
		c-0.78,0.76-1.83,1.15-3.13,1.15h-3.33c-1.3,0-2.35-0.38-3.13-1.15c-0.78-0.77-1.17-1.78-1.17-3.06v-8.99
		c-1.56,2.3-3.78,4.59-6.65,6.89c-2.87,2.3-6.55,4.24-11.05,5.83C827.93,309.87,822.29,310.67,815.51,310.67z M817.46,299.57
		c6,0,11.47-1.27,16.43-3.82c4.95-2.55,8.9-6.47,11.83-11.76c2.93-5.29,4.4-11.95,4.4-19.98v-6.5l-25.23,3.44
		c-10.69,1.4-18.78,3.82-24.25,7.27c-5.48,3.44-8.21,7.78-8.21,13c0,4.21,1.24,7.65,3.72,10.33c2.48,2.68,5.64,4.69,9.49,6.02
		C809.47,298.9,813.42,299.57,817.46,299.57z"/>
	<path class="st1" d="M931.77,310.67c-8.09,0-14.77-1.43-20.05-4.3c-5.28-2.87-9.55-6.47-12.81-10.81v8.99
		c0,1.28-0.39,2.3-1.17,3.06c-0.78,0.76-1.83,1.15-3.13,1.15h-3.32c-1.31,0-2.35-0.38-3.13-1.15c-0.78-0.77-1.17-1.78-1.17-3.06
		V177.18c0-1.27,0.39-2.3,1.17-3.06c0.78-0.76,1.82-1.15,3.13-1.15h3.32c1.3,0,2.35,0.38,3.13,1.15c0.78,0.77,1.17,1.79,1.17,3.06
		v45.32c3.26-4.21,7.53-7.77,12.81-10.71c5.28-2.93,11.96-4.4,20.05-4.4c7.69,0,14.15,1.34,19.36,4.02
		c5.21,2.68,9.45,6.25,12.71,10.71c3.26,4.46,5.67,9.44,7.24,14.92c1.56,5.48,2.41,11.03,2.54,16.64c0.13,1.91,0.2,3.7,0.2,5.36
		c0,1.66-0.07,3.44-0.2,5.36c-0.13,5.61-0.98,11.16-2.54,16.64c-1.56,5.48-3.98,10.46-7.24,14.92c-3.26,4.46-7.5,8.03-12.71,10.71
		C945.92,309.33,939.46,310.67,931.77,310.67z M930.6,299.57c7.69,0,13.76-1.65,18.19-4.97c4.43-3.31,7.63-7.65,9.58-13
		c1.96-5.36,3.06-11.09,3.32-17.21c0.13-3.57,0.13-7.14,0-10.71c-0.26-6.12-1.37-11.86-3.32-17.21c-1.96-5.36-5.15-9.69-9.58-13.01
		c-4.43-3.31-10.5-4.97-18.19-4.97c-7.17,0-13.07,1.66-17.7,4.97c-4.63,3.32-8.09,7.46-10.37,12.43
		c-2.28,4.97-3.49,10.01-3.62,15.11c-0.13,1.91-0.2,4.4-0.2,7.46c0,3.06,0.06,5.55,0.2,7.46c0.26,5.23,1.47,10.42,3.62,15.59
		c2.15,5.16,5.51,9.47,10.07,12.91C917.16,297.85,923.16,299.57,930.6,299.57z"/>
	<path class="st1" d="M1031.63,310.67c-6.78,0-12.62-0.89-17.51-2.68s-8.9-3.92-12.03-6.41c-3.13-2.49-5.45-4.94-6.94-7.36
		c-1.5-2.42-2.32-4.27-2.44-5.55c-0.13-1.4,0.32-2.45,1.37-3.16c1.04-0.7,2.02-1.05,2.93-1.05h2.93c0.78,0,1.47,0.13,2.05,0.38
		c0.59,0.26,1.34,0.96,2.25,2.1c1.69,2.17,3.65,4.24,5.87,6.22c2.22,1.98,5.05,3.54,8.51,4.69c3.45,1.15,7.79,1.72,13.01,1.72
		c7.82,0,14.28-1.46,19.36-4.4c5.09-2.93,7.63-7.27,7.63-13.01c0-3.57-1.01-6.44-3.03-8.61c-2.02-2.17-5.45-4.08-10.27-5.74
		c-4.83-1.65-11.34-3.38-19.56-5.16c-8.21-1.91-14.51-4.21-18.88-6.89c-4.37-2.68-7.33-5.77-8.9-9.28c-1.56-3.5-2.35-7.3-2.35-11.38
		c0-4.46,1.3-8.83,3.91-13.1c2.61-4.27,6.48-7.78,11.64-10.52c5.15-2.74,11.64-4.11,19.46-4.11c6.39,0,11.83,0.83,16.33,2.49
		c4.5,1.66,8.18,3.67,11.05,6.02c2.87,2.36,4.99,4.69,6.36,6.98c1.37,2.3,2.12,4.14,2.25,5.55c0.13,1.28-0.26,2.3-1.17,3.06
		c-0.91,0.77-1.96,1.15-3.13,1.15h-2.93c-1.05,0-1.89-0.22-2.54-0.67c-0.65-0.45-1.24-1.05-1.76-1.82c-1.3-2.04-2.87-3.95-4.69-5.74
		c-1.83-1.78-4.27-3.22-7.33-4.3c-3.06-1.08-7.21-1.63-12.42-1.63c-7.82,0-13.63,1.56-17.41,4.69c-3.78,3.13-5.67,7.11-5.67,11.95
		c0,2.81,0.78,5.26,2.35,7.36c1.56,2.1,4.5,4.02,8.8,5.74c4.3,1.72,10.56,3.54,18.78,5.45c8.34,1.79,14.93,3.99,19.75,6.6
		c4.82,2.61,8.25,5.71,10.27,9.28c2.02,3.57,3.03,7.78,3.03,12.62c0,5.1-1.47,9.82-4.4,14.15c-2.93,4.34-7.3,7.81-13.1,10.42
		C1047.24,309.36,1040.11,310.67,1031.63,310.67z"/>
</g>
<g>
	<path class="st0" d="M475.94,348.93c-0.96,0-1.72-0.2-2.27-0.61c-0.56-0.41-0.94-0.96-1.17-1.66c-0.22-0.7-0.33-1.49-0.33-2.36
		v-8.18h-2.16c-0.18,0-0.33-0.06-0.44-0.17c-0.11-0.11-0.17-0.26-0.17-0.44v-0.39c0-0.18,0.06-0.33,0.17-0.44
		c0.11-0.11,0.26-0.17,0.44-0.17h2.16v-4.66c0-0.18,0.05-0.33,0.17-0.44c0.11-0.11,0.26-0.17,0.45-0.17h0.47
		c0.18,0,0.33,0.06,0.44,0.17c0.11,0.11,0.17,0.26,0.17,0.44v4.66h3.44c0.19,0,0.33,0.06,0.45,0.17c0.11,0.11,0.17,0.26,0.17,0.44
		v0.39c0,0.18-0.06,0.33-0.17,0.44c-0.11,0.11-0.26,0.17-0.45,0.17h-3.44v8.07c0,0.98,0.16,1.75,0.48,2.3
		c0.32,0.55,0.9,0.83,1.73,0.83h1.5c0.18,0,0.33,0.06,0.44,0.17c0.11,0.11,0.17,0.26,0.17,0.44v0.39c0,0.18-0.06,0.33-0.17,0.44
		c-0.11,0.11-0.26,0.17-0.44,0.17H475.94z"/>
	<path class="st0" d="M496.16,349.21c-1.79,0-3.22-0.59-4.27-1.76c-1.06-1.17-1.66-2.71-1.8-4.62c-0.02-0.28-0.03-0.65-0.03-1.11
		c0-0.46,0.01-0.83,0.03-1.11c0.09-1.26,0.39-2.37,0.89-3.33c0.5-0.96,1.19-1.71,2.07-2.25c0.88-0.54,1.92-0.8,3.12-0.8
		c1.29,0,2.39,0.29,3.3,0.86c0.9,0.57,1.6,1.4,2.09,2.47c0.49,1.07,0.73,2.35,0.73,3.83v0.42c0,0.18-0.06,0.33-0.18,0.44
		c-0.12,0.11-0.27,0.17-0.46,0.17h-9.87c0,0.15,0,0.24,0,0.28c0.04,0.83,0.23,1.62,0.58,2.37c0.35,0.75,0.85,1.36,1.5,1.83
		c0.65,0.47,1.41,0.71,2.3,0.71c0.79,0,1.46-0.12,1.98-0.36c0.53-0.24,0.95-0.5,1.26-0.79c0.31-0.29,0.52-0.5,0.61-0.65
		c0.17-0.24,0.3-0.38,0.39-0.43c0.09-0.05,0.24-0.07,0.44-0.07h0.44c0.17,0,0.31,0.05,0.43,0.15c0.12,0.1,0.17,0.24,0.15,0.4
		c-0.02,0.26-0.16,0.58-0.43,0.96c-0.27,0.38-0.65,0.75-1.14,1.12c-0.49,0.37-1.09,0.67-1.79,0.92
		C497.82,349.09,497.03,349.21,496.16,349.21z M491.78,340.86h8.82v-0.11c0-0.92-0.18-1.76-0.53-2.5c-0.35-0.74-0.86-1.33-1.53-1.76
		c-0.67-0.43-1.46-0.65-2.39-0.65c-0.93,0-1.72,0.22-2.37,0.65c-0.66,0.43-1.16,1.02-1.5,1.76c-0.34,0.74-0.51,1.57-0.51,2.5V340.86
		z"/>
	<path class="st0" d="M521.18,349.21c-1.29,0-2.39-0.25-3.3-0.76c-0.91-0.51-1.6-1.24-2.07-2.2c-0.47-0.96-0.72-2.1-0.76-3.41
		c-0.02-0.28-0.03-0.65-0.03-1.11c0-0.46,0.01-0.83,0.03-1.11c0.04-1.33,0.29-2.47,0.76-3.42c0.47-0.95,1.16-1.68,2.07-2.19
		c0.9-0.51,2.01-0.76,3.3-0.76c0.98,0,1.83,0.13,2.54,0.4c0.71,0.27,1.3,0.62,1.76,1.05c0.46,0.43,0.81,0.91,1.05,1.43
		c0.24,0.52,0.37,1.03,0.39,1.53c0.02,0.18-0.04,0.33-0.17,0.44c-0.13,0.11-0.28,0.17-0.44,0.17h-0.39c-0.19,0-0.32-0.04-0.4-0.13
		c-0.08-0.08-0.17-0.24-0.26-0.46c-0.39-1.05-0.92-1.79-1.59-2.2c-0.67-0.42-1.5-0.62-2.48-0.62c-1.26,0-2.3,0.38-3.12,1.15
		c-0.82,0.77-1.26,2.02-1.32,3.76c-0.04,0.65-0.04,1.29,0,1.94c0.06,1.74,0.49,2.99,1.32,3.76c0.82,0.77,1.86,1.15,3.12,1.15
		c0.98,0,1.81-0.21,2.48-0.62c0.67-0.42,1.21-1.15,1.59-2.2c0.09-0.22,0.18-0.38,0.26-0.46c0.08-0.08,0.22-0.13,0.4-0.13h0.39
		c0.17,0,0.31,0.06,0.44,0.17c0.13,0.11,0.19,0.26,0.17,0.44c-0.02,0.41-0.1,0.81-0.25,1.22c-0.15,0.41-0.37,0.8-0.68,1.19
		c-0.3,0.39-0.68,0.73-1.12,1.03c-0.44,0.3-0.97,0.53-1.59,0.71C522.65,349.12,521.95,349.21,521.18,349.21z"/>
	<path class="st0" d="M540.95,348.93c-0.19,0-0.33-0.06-0.45-0.17c-0.11-0.11-0.17-0.26-0.17-0.44v-13.2c0-0.18,0.05-0.33,0.17-0.44
		c0.11-0.11,0.26-0.17,0.45-0.17h0.47c0.18,0,0.33,0.06,0.44,0.17c0.11,0.11,0.17,0.26,0.17,0.44v1.3c0.5-0.65,1.1-1.17,1.82-1.58
		c0.71-0.41,1.66-0.61,2.84-0.61c1.26,0,2.31,0.27,3.15,0.82c0.84,0.55,1.47,1.29,1.89,2.22c0.42,0.93,0.62,1.99,0.62,3.18v7.88
		c0,0.18-0.06,0.33-0.17,0.44c-0.11,0.11-0.26,0.17-0.44,0.17h-0.47c-0.19,0-0.33-0.06-0.44-0.17c-0.11-0.11-0.17-0.26-0.17-0.44
		v-7.74c0-1.48-0.36-2.64-1.08-3.48s-1.78-1.26-3.16-1.26c-1.31,0-2.37,0.42-3.18,1.26c-0.8,0.84-1.21,2-1.21,3.48v7.74
		c0,0.18-0.06,0.33-0.17,0.44c-0.11,0.11-0.26,0.17-0.44,0.17H540.95z"/>
	<path class="st0" d="M571.96,349.21c-1.33,0-2.44-0.28-3.34-0.83s-1.58-1.31-2.05-2.27c-0.47-0.96-0.72-2.03-0.76-3.22
		c-0.02-0.28-0.03-0.67-0.03-1.16s0.01-0.89,0.03-1.16c0.04-1.2,0.29-2.28,0.76-3.23c0.47-0.95,1.16-1.71,2.05-2.26
		s2.01-0.83,3.34-0.83c1.33,0,2.44,0.28,3.34,0.83c0.9,0.55,1.58,1.31,2.05,2.26c0.47,0.95,0.73,2.03,0.76,3.23
		c0.02,0.28,0.03,0.67,0.03,1.16s-0.01,0.89-0.03,1.16c-0.04,1.18-0.29,2.26-0.76,3.22c-0.47,0.96-1.16,1.72-2.05,2.27
		C574.4,348.93,573.29,349.21,571.96,349.21z M571.96,347.6c1.29,0,2.35-0.42,3.16-1.25c0.81-0.83,1.25-2.03,1.3-3.61
		c0.02-0.28,0.03-0.62,0.03-1.03s-0.01-0.75-0.03-1.03c-0.05-1.59-0.49-2.8-1.3-3.62c-0.81-0.82-1.87-1.23-3.16-1.23
		s-2.35,0.41-3.16,1.23c-0.81,0.82-1.25,2.03-1.3,3.62c-0.02,0.28-0.03,0.62-0.03,1.03s0.01,0.75,0.03,1.03
		c0.06,1.57,0.49,2.77,1.3,3.61C569.61,347.19,570.66,347.6,571.96,347.6z"/>
	<path class="st0" d="M592.34,348.93c-0.18,0-0.33-0.06-0.44-0.17c-0.11-0.11-0.17-0.26-0.17-0.44v-18.47
		c0-0.18,0.06-0.33,0.17-0.44c0.11-0.11,0.26-0.17,0.44-0.17h0.47c0.19,0,0.33,0.06,0.44,0.17c0.11,0.11,0.17,0.26,0.17,0.44v18.47
		c0,0.18-0.05,0.33-0.17,0.44c-0.11,0.11-0.26,0.17-0.44,0.17H592.34z"/>
	<path class="st0" d="M613.2,349.21c-1.33,0-2.44-0.28-3.34-0.83s-1.58-1.31-2.05-2.27c-0.47-0.96-0.72-2.03-0.76-3.22
		c-0.02-0.28-0.03-0.67-0.03-1.16s0.01-0.89,0.03-1.16c0.04-1.2,0.29-2.28,0.76-3.23c0.47-0.95,1.16-1.71,2.05-2.26
		s2.01-0.83,3.34-0.83c1.33,0,2.44,0.28,3.34,0.83c0.9,0.55,1.58,1.31,2.05,2.26c0.47,0.95,0.73,2.03,0.76,3.23
		c0.02,0.28,0.03,0.67,0.03,1.16s-0.01,0.89-0.03,1.16c-0.04,1.18-0.29,2.26-0.76,3.22c-0.47,0.96-1.16,1.72-2.05,2.27
		C615.64,348.93,614.53,349.21,613.2,349.21z M613.2,347.6c1.29,0,2.35-0.42,3.16-1.25c0.81-0.83,1.25-2.03,1.3-3.61
		c0.02-0.28,0.03-0.62,0.03-1.03s-0.01-0.75-0.03-1.03c-0.05-1.59-0.49-2.8-1.3-3.62c-0.81-0.82-1.87-1.23-3.16-1.23
		s-2.35,0.41-3.16,1.23c-0.81,0.82-1.25,2.03-1.3,3.62c-0.02,0.28-0.03,0.62-0.03,1.03s0.01,0.75,0.03,1.03
		c0.06,1.57,0.49,2.77,1.3,3.61C610.85,347.19,611.91,347.6,613.2,347.6z"/>
	<path class="st0" d="M638.33,355.03c-1.18,0-2.15-0.16-2.9-0.47c-0.75-0.31-1.33-0.7-1.75-1.15c-0.42-0.45-0.71-0.91-0.87-1.36
		c-0.17-0.45-0.26-0.82-0.28-1.1c-0.02-0.18,0.04-0.34,0.17-0.46c0.13-0.12,0.28-0.18,0.44-0.18h0.39c0.15,0,0.28,0.03,0.39,0.1
		c0.11,0.06,0.2,0.23,0.28,0.49c0.11,0.3,0.29,0.64,0.54,1.04c0.25,0.4,0.65,0.74,1.19,1.04c0.55,0.3,1.3,0.44,2.26,0.44
		c1.02,0,1.87-0.13,2.55-0.39c0.68-0.26,1.21-0.72,1.57-1.37c0.36-0.66,0.54-1.57,0.54-2.73v-1.91c-0.46,0.63-1.07,1.15-1.82,1.57
		c-0.75,0.42-1.7,0.62-2.84,0.62c-1.07,0-1.98-0.19-2.73-0.58c-0.75-0.39-1.35-0.91-1.82-1.55c-0.46-0.65-0.8-1.37-1.03-2.16
		c-0.22-0.8-0.34-1.6-0.36-2.41c-0.02-0.52-0.02-1.04,0-1.55c0.02-0.81,0.14-1.62,0.36-2.41c0.22-0.8,0.56-1.52,1.03-2.16
		c0.46-0.65,1.07-1.16,1.82-1.55c0.75-0.39,1.66-0.58,2.73-0.58c1.15,0,2.09,0.21,2.84,0.64c0.75,0.43,1.35,0.94,1.82,1.55v-1.28
		c0-0.18,0.05-0.34,0.17-0.46c0.11-0.12,0.26-0.18,0.44-0.18h0.44c0.18,0,0.34,0.06,0.46,0.18c0.12,0.12,0.18,0.27,0.18,0.46v13.51
		c0,1.18-0.18,2.26-0.53,3.22s-0.98,1.73-1.87,2.3C641.24,354.75,639.97,355.03,638.33,355.03z M638.36,347.6
		c1.05,0,1.9-0.25,2.55-0.75c0.65-0.5,1.12-1.12,1.43-1.87c0.3-0.75,0.48-1.5,0.51-2.26c0.02-0.28,0.03-0.61,0.03-1
		c0-0.39-0.01-0.72-0.03-1c-0.04-0.76-0.21-1.51-0.51-2.26c-0.31-0.75-0.78-1.37-1.43-1.87c-0.65-0.5-1.5-0.75-2.55-0.75
		c-1.07,0-1.93,0.24-2.57,0.72c-0.64,0.48-1.1,1.11-1.37,1.89s-0.43,1.61-0.47,2.5c-0.02,0.52-0.02,1.04,0,1.55
		c0.04,0.89,0.19,1.72,0.47,2.5s0.74,1.41,1.37,1.89C636.43,347.36,637.28,347.6,638.36,347.6z"/>
	<path class="st0" d="M659.13,331.54c-0.19,0-0.33-0.06-0.45-0.17c-0.11-0.11-0.17-0.26-0.17-0.44v-1.05c0-0.18,0.06-0.34,0.17-0.46
		c0.11-0.12,0.26-0.18,0.45-0.18h1.05c0.18,0,0.34,0.06,0.46,0.18c0.12,0.12,0.18,0.27,0.18,0.46v1.05c0,0.18-0.06,0.33-0.18,0.44
		c-0.12,0.11-0.27,0.17-0.46,0.17H659.13z M659.43,348.93c-0.19,0-0.33-0.06-0.45-0.17c-0.11-0.11-0.17-0.26-0.17-0.44v-13.2
		c0-0.18,0.05-0.33,0.17-0.44c0.11-0.11,0.26-0.17,0.45-0.17h0.47c0.18,0,0.33,0.06,0.44,0.17c0.11,0.11,0.17,0.26,0.17,0.44v13.2
		c0,0.18-0.06,0.33-0.17,0.44c-0.11,0.11-0.26,0.17-0.44,0.17H659.43z"/>
	<path class="st0" d="M678.65,349.21c-0.89,0-1.7-0.18-2.45-0.55c-0.75-0.37-1.35-0.86-1.82-1.48c-0.46-0.62-0.69-1.32-0.69-2.09
		c0-1.26,0.51-2.26,1.53-3.02c1.02-0.76,2.34-1.25,3.97-1.47l4.38-0.61V339c0-0.98-0.3-1.75-0.9-2.32c-0.6-0.56-1.56-0.85-2.87-0.85
		c-0.96,0-1.74,0.19-2.33,0.57c-0.59,0.38-1,0.87-1.22,1.48c-0.09,0.28-0.27,0.42-0.53,0.42h-0.44c-0.22,0-0.38-0.06-0.47-0.18
		c-0.09-0.12-0.14-0.26-0.14-0.43c0-0.26,0.1-0.58,0.29-0.97c0.19-0.39,0.49-0.77,0.9-1.15c0.41-0.38,0.93-0.7,1.58-0.96
		c0.65-0.26,1.43-0.39,2.36-0.39c1.09,0,1.99,0.15,2.7,0.44c0.71,0.3,1.27,0.68,1.66,1.15c0.4,0.47,0.68,0.99,0.85,1.57
		c0.17,0.57,0.25,1.14,0.25,1.69v9.24c0,0.18-0.06,0.33-0.17,0.44c-0.11,0.11-0.26,0.17-0.44,0.17h-0.47
		c-0.19,0-0.33-0.06-0.44-0.17c-0.11-0.11-0.17-0.26-0.17-0.44v-1.3c-0.22,0.33-0.54,0.67-0.94,1c-0.41,0.33-0.93,0.61-1.57,0.85
		C680.41,349.09,679.61,349.21,678.65,349.21z M678.93,347.6c0.85,0,1.63-0.18,2.33-0.55c0.7-0.37,1.26-0.94,1.68-1.71
		c0.42-0.77,0.62-1.73,0.62-2.9v-0.94l-3.58,0.5c-1.52,0.2-2.66,0.55-3.44,1.05c-0.78,0.5-1.16,1.13-1.16,1.89
		c0,0.61,0.18,1.11,0.53,1.5c0.35,0.39,0.8,0.68,1.35,0.87C677.8,347.5,678.36,347.6,678.93,347.6z"/>
	<path class="st0" d="M726.83,354.2c-0.19,0-0.33-0.06-0.44-0.17c-0.11-0.11-0.17-0.26-0.17-0.44v-6.57
		c-0.46,0.61-1.07,1.13-1.82,1.55c-0.75,0.43-1.7,0.64-2.84,0.64c-1.07,0-1.98-0.19-2.73-0.57s-1.35-0.88-1.82-1.51
		c-0.46-0.63-0.8-1.33-1.01-2.11c-0.21-0.78-0.34-1.57-0.37-2.39c-0.02-0.28-0.03-0.58-0.03-0.92s0.01-0.64,0.03-0.92
		c0.04-0.81,0.16-1.61,0.37-2.39c0.21-0.78,0.55-1.48,1.01-2.11c0.46-0.63,1.07-1.13,1.82-1.51c0.75-0.38,1.66-0.57,2.73-0.57
		c1.15,0,2.09,0.21,2.84,0.62c0.75,0.42,1.35,0.94,1.82,1.57v-1.3c0-0.18,0.05-0.33,0.17-0.44c0.11-0.11,0.26-0.17,0.44-0.17h0.47
		c0.18,0,0.33,0.06,0.44,0.17c0.11,0.11,0.17,0.26,0.17,0.44v18.47c0,0.18-0.06,0.33-0.17,0.44c-0.11,0.11-0.26,0.17-0.44,0.17
		H726.83z M721.73,347.6c1.03,0,1.88-0.24,2.52-0.72c0.65-0.48,1.13-1.08,1.46-1.8c0.32-0.72,0.5-1.45,0.51-2.19
		c0.02-0.28,0.03-0.64,0.03-1.08s-0.01-0.8-0.03-1.08c-0.02-0.76-0.19-1.51-0.5-2.26c-0.32-0.75-0.8-1.37-1.44-1.87
		c-0.65-0.5-1.5-0.75-2.55-0.75c-1.07,0-1.93,0.24-2.57,0.72c-0.64,0.48-1.1,1.11-1.37,1.89s-0.43,1.61-0.47,2.5
		c-0.02,0.52-0.02,1.04,0,1.55c0.04,0.89,0.19,1.72,0.47,2.5s0.74,1.41,1.37,1.89C719.8,347.36,720.65,347.6,721.73,347.6z"/>
	<path class="st0" d="M747.6,349.21c-1.26,0-2.3-0.27-3.12-0.82s-1.43-1.29-1.83-2.23c-0.4-0.94-0.6-2-0.6-3.16v-7.88
		c0-0.18,0.06-0.33,0.17-0.44c0.11-0.11,0.26-0.17,0.44-0.17h0.47c0.19,0,0.33,0.06,0.45,0.17c0.11,0.11,0.17,0.26,0.17,0.44v7.74
		c0,3.16,1.38,4.74,4.13,4.74c1.31,0,2.37-0.42,3.16-1.26c0.8-0.84,1.19-2,1.19-3.48v-7.74c0-0.18,0.05-0.33,0.17-0.44
		c0.11-0.11,0.26-0.17,0.44-0.17h0.47c0.18,0,0.33,0.06,0.44,0.17c0.11,0.11,0.17,0.26,0.17,0.44v13.2c0,0.18-0.06,0.33-0.17,0.44
		c-0.11,0.11-0.26,0.17-0.44,0.17h-0.47c-0.19,0-0.33-0.06-0.44-0.17c-0.11-0.11-0.17-0.26-0.17-0.44v-1.3
		c-0.5,0.65-1.1,1.17-1.79,1.58C749.75,349.01,748.8,349.21,747.6,349.21z"/>
	<path class="st0" d="M773.53,349.21c-1.79,0-3.22-0.59-4.27-1.76c-1.06-1.17-1.66-2.71-1.8-4.62c-0.02-0.28-0.03-0.65-0.03-1.11
		c0-0.46,0.01-0.83,0.03-1.11c0.09-1.26,0.39-2.37,0.89-3.33c0.5-0.96,1.19-1.71,2.07-2.25c0.88-0.54,1.92-0.8,3.12-0.8
		c1.29,0,2.39,0.29,3.3,0.86c0.9,0.57,1.6,1.4,2.09,2.47c0.49,1.07,0.73,2.35,0.73,3.83v0.42c0,0.18-0.06,0.33-0.18,0.44
		c-0.12,0.11-0.27,0.17-0.46,0.17h-9.87c0,0.15,0,0.24,0,0.28c0.04,0.83,0.23,1.62,0.58,2.37c0.35,0.75,0.85,1.36,1.5,1.83
		c0.65,0.47,1.41,0.71,2.3,0.71c0.79,0,1.46-0.12,1.98-0.36c0.53-0.24,0.95-0.5,1.26-0.79c0.31-0.29,0.52-0.5,0.61-0.65
		c0.17-0.24,0.3-0.38,0.39-0.43c0.09-0.05,0.24-0.07,0.44-0.07h0.44c0.17,0,0.31,0.05,0.43,0.15c0.12,0.1,0.17,0.24,0.15,0.4
		c-0.02,0.26-0.16,0.58-0.43,0.96c-0.27,0.38-0.65,0.75-1.14,1.12c-0.49,0.37-1.09,0.67-1.79,0.92
		C775.19,349.09,774.4,349.21,773.53,349.21z M769.15,340.86h8.82v-0.11c0-0.92-0.18-1.76-0.53-2.5c-0.35-0.74-0.86-1.33-1.53-1.76
		c-0.67-0.43-1.46-0.65-2.39-0.65c-0.93,0-1.72,0.22-2.37,0.65c-0.66,0.43-1.16,1.02-1.5,1.76c-0.34,0.74-0.51,1.57-0.51,2.5V340.86
		z"/>
	<path class="st0" d="M814.25,348.93c-0.96,0-1.72-0.2-2.27-0.61c-0.56-0.41-0.94-0.96-1.17-1.66c-0.22-0.7-0.33-1.49-0.33-2.36
		v-8.18h-2.16c-0.18,0-0.33-0.06-0.44-0.17c-0.11-0.11-0.17-0.26-0.17-0.44v-0.39c0-0.18,0.06-0.33,0.17-0.44
		c0.11-0.11,0.26-0.17,0.44-0.17h2.16v-4.66c0-0.18,0.05-0.33,0.17-0.44c0.11-0.11,0.26-0.17,0.45-0.17h0.47
		c0.18,0,0.33,0.06,0.44,0.17c0.11,0.11,0.17,0.26,0.17,0.44v4.66h3.44c0.19,0,0.33,0.06,0.45,0.17c0.11,0.11,0.17,0.26,0.17,0.44
		v0.39c0,0.18-0.06,0.33-0.17,0.44c-0.11,0.11-0.26,0.17-0.45,0.17h-3.44v8.07c0,0.98,0.16,1.75,0.48,2.3
		c0.32,0.55,0.9,0.83,1.73,0.83h1.5c0.18,0,0.33,0.06,0.44,0.17c0.11,0.11,0.17,0.26,0.17,0.44v0.39c0,0.18-0.06,0.33-0.17,0.44
		c-0.11,0.11-0.26,0.17-0.44,0.17H814.25z"/>
	<path class="st0" d="M829.72,348.93c-0.19,0-0.33-0.06-0.45-0.17c-0.11-0.11-0.17-0.26-0.17-0.44v-13.17
		c0-0.18,0.05-0.34,0.17-0.46c0.11-0.12,0.26-0.18,0.45-0.18h0.44c0.18,0,0.34,0.06,0.46,0.18c0.12,0.12,0.18,0.27,0.18,0.46v1.28
		c0.33-0.65,0.81-1.13,1.44-1.44c0.63-0.31,1.41-0.47,2.33-0.47h1.03c0.18,0,0.33,0.06,0.44,0.17c0.11,0.11,0.17,0.26,0.17,0.44
		v0.39c0,0.18-0.06,0.33-0.17,0.44c-0.11,0.11-0.26,0.17-0.44,0.17h-1.19c-1.11,0-1.99,0.32-2.63,0.97s-0.97,1.53-0.97,2.63v8.6
		c0,0.18-0.06,0.33-0.18,0.44c-0.12,0.11-0.27,0.17-0.46,0.17H829.72z"/>
	<path class="st0" d="M852.19,349.21c-0.89,0-1.7-0.18-2.45-0.55c-0.75-0.37-1.35-0.86-1.82-1.48c-0.46-0.62-0.69-1.32-0.69-2.09
		c0-1.26,0.51-2.26,1.53-3.02c1.02-0.76,2.34-1.25,3.97-1.47l4.38-0.61V339c0-0.98-0.3-1.75-0.9-2.32c-0.6-0.56-1.56-0.85-2.87-0.85
		c-0.96,0-1.74,0.19-2.33,0.57c-0.59,0.38-1,0.87-1.22,1.48c-0.09,0.28-0.27,0.42-0.53,0.42h-0.44c-0.22,0-0.38-0.06-0.47-0.18
		c-0.09-0.12-0.14-0.26-0.14-0.43c0-0.26,0.1-0.58,0.29-0.97c0.19-0.39,0.49-0.77,0.9-1.15c0.41-0.38,0.93-0.7,1.58-0.96
		c0.65-0.26,1.43-0.39,2.36-0.39c1.09,0,1.99,0.15,2.7,0.44c0.71,0.3,1.27,0.68,1.66,1.15c0.4,0.47,0.68,0.99,0.85,1.57
		c0.17,0.57,0.25,1.14,0.25,1.69v9.24c0,0.18-0.06,0.33-0.17,0.44c-0.11,0.11-0.26,0.17-0.44,0.17h-0.47
		c-0.19,0-0.33-0.06-0.44-0.17c-0.11-0.11-0.17-0.26-0.17-0.44v-1.3c-0.22,0.33-0.54,0.67-0.94,1c-0.41,0.33-0.93,0.61-1.57,0.85
		C853.95,349.09,853.15,349.21,852.19,349.21z M852.47,347.6c0.85,0,1.63-0.18,2.33-0.55c0.7-0.37,1.26-0.94,1.68-1.71
		c0.42-0.77,0.62-1.73,0.62-2.9v-0.94l-3.58,0.5c-1.52,0.2-2.66,0.55-3.44,1.05c-0.78,0.5-1.16,1.13-1.16,1.89
		c0,0.61,0.18,1.11,0.53,1.5c0.35,0.39,0.8,0.68,1.35,0.87C851.33,347.5,851.89,347.6,852.47,347.6z"/>
	<path class="st0" d="M873.54,348.93c-0.19,0-0.33-0.06-0.45-0.17c-0.11-0.11-0.17-0.26-0.17-0.44v-13.2c0-0.18,0.05-0.33,0.17-0.44
		c0.11-0.11,0.26-0.17,0.45-0.17h0.47c0.18,0,0.33,0.06,0.44,0.17c0.11,0.11,0.17,0.26,0.17,0.44v1.3c0.5-0.65,1.1-1.17,1.82-1.58
		s1.66-0.61,2.84-0.61c1.26,0,2.31,0.27,3.15,0.82c0.84,0.55,1.47,1.29,1.89,2.22c0.42,0.93,0.62,1.99,0.62,3.18v7.88
		c0,0.18-0.06,0.33-0.17,0.44c-0.11,0.11-0.26,0.17-0.44,0.17h-0.47c-0.19,0-0.33-0.06-0.44-0.17c-0.11-0.11-0.17-0.26-0.17-0.44
		v-7.74c0-1.48-0.36-2.64-1.08-3.48c-0.72-0.84-1.78-1.26-3.16-1.26c-1.31,0-2.37,0.42-3.18,1.26c-0.8,0.84-1.21,2-1.21,3.48v7.74
		c0,0.18-0.06,0.33-0.17,0.44c-0.11,0.11-0.26,0.17-0.44,0.17H873.54z"/>
	<path class="st0" d="M903.64,349.21c-0.96,0-1.79-0.13-2.48-0.39c-0.69-0.26-1.26-0.57-1.71-0.93c-0.44-0.36-0.77-0.72-0.98-1.07
		c-0.21-0.35-0.33-0.62-0.35-0.8c-0.02-0.2,0.05-0.36,0.19-0.46c0.15-0.1,0.29-0.15,0.42-0.15h0.42c0.11,0,0.21,0.02,0.29,0.06
		c0.08,0.04,0.19,0.14,0.32,0.31c0.24,0.31,0.52,0.61,0.83,0.9c0.31,0.29,0.72,0.51,1.21,0.68c0.49,0.17,1.11,0.25,1.84,0.25
		c1.11,0,2.02-0.21,2.75-0.64c0.72-0.43,1.08-1.05,1.08-1.89c0-0.52-0.14-0.93-0.43-1.25c-0.29-0.31-0.77-0.59-1.46-0.83
		c-0.68-0.24-1.61-0.49-2.77-0.75c-1.16-0.28-2.06-0.61-2.68-1c-0.62-0.39-1.04-0.84-1.26-1.35c-0.22-0.51-0.33-1.06-0.33-1.65
		c0-0.65,0.18-1.28,0.55-1.9c0.37-0.62,0.92-1.13,1.65-1.53c0.73-0.4,1.65-0.6,2.76-0.6c0.91,0,1.68,0.12,2.32,0.36
		c0.64,0.24,1.16,0.53,1.57,0.87c0.41,0.34,0.71,0.68,0.9,1.01c0.19,0.33,0.3,0.6,0.32,0.8c0.02,0.18-0.04,0.33-0.17,0.44
		c-0.13,0.11-0.28,0.17-0.44,0.17h-0.42c-0.15,0-0.27-0.03-0.36-0.1s-0.18-0.15-0.25-0.26c-0.19-0.3-0.41-0.57-0.67-0.83
		c-0.26-0.26-0.61-0.47-1.04-0.62c-0.43-0.16-1.02-0.24-1.76-0.24c-1.11,0-1.93,0.23-2.47,0.68c-0.54,0.45-0.8,1.03-0.8,1.73
		c0,0.41,0.11,0.76,0.33,1.07c0.22,0.31,0.64,0.58,1.25,0.83c0.61,0.25,1.5,0.51,2.66,0.79c1.18,0.26,2.12,0.58,2.8,0.96
		c0.68,0.38,1.17,0.83,1.46,1.34c0.29,0.52,0.43,1.13,0.43,1.83c0,0.74-0.21,1.42-0.62,2.05c-0.42,0.63-1.04,1.13-1.86,1.51
		C905.85,349.02,904.84,349.21,903.64,349.21z"/>
	<path class="st0" d="M924.44,348.93c-0.19,0-0.33-0.06-0.44-0.17c-0.11-0.11-0.17-0.26-0.17-0.44v-12.2h-2.47
		c-0.19,0-0.33-0.06-0.44-0.17c-0.11-0.11-0.17-0.26-0.17-0.44v-0.39c0-0.18,0.05-0.33,0.17-0.44c0.11-0.11,0.26-0.17,0.44-0.17
		h2.47v-1.58c0-0.83,0.11-1.59,0.35-2.27c0.23-0.68,0.65-1.23,1.25-1.64c0.6-0.41,1.46-0.61,2.59-0.61h1.44
		c0.19,0,0.33,0.06,0.45,0.17c0.11,0.11,0.17,0.26,0.17,0.44v0.39c0,0.18-0.05,0.33-0.17,0.44c-0.11,0.11-0.26,0.17-0.45,0.17h-1.44
		c-0.98,0-1.64,0.26-1.98,0.79c-0.34,0.53-0.51,1.28-0.51,2.26v1.44h3.66c0.18,0,0.33,0.06,0.44,0.17c0.11,0.11,0.17,0.26,0.17,0.44
		v0.39c0,0.18-0.05,0.33-0.17,0.44c-0.11,0.11-0.26,0.17-0.44,0.17h-3.66v12.2c0,0.18-0.06,0.33-0.17,0.44
		c-0.11,0.11-0.26,0.17-0.44,0.17H924.44z"/>
	<path class="st0" d="M947.4,349.21c-1.33,0-2.44-0.28-3.34-0.83s-1.58-1.31-2.05-2.27c-0.47-0.96-0.72-2.03-0.76-3.22
		c-0.02-0.28-0.03-0.67-0.03-1.16s0.01-0.89,0.03-1.16c0.04-1.2,0.29-2.28,0.76-3.23c0.47-0.95,1.16-1.71,2.05-2.26
		s2.01-0.83,3.34-0.83c1.33,0,2.44,0.28,3.34,0.83c0.9,0.55,1.58,1.31,2.05,2.26c0.47,0.95,0.73,2.03,0.76,3.23
		c0.02,0.28,0.03,0.67,0.03,1.16s-0.01,0.89-0.03,1.16c-0.04,1.18-0.29,2.26-0.76,3.22c-0.47,0.96-1.16,1.72-2.05,2.27
		C949.85,348.93,948.73,349.21,947.4,349.21z M947.4,347.6c1.29,0,2.35-0.42,3.16-1.25c0.81-0.83,1.25-2.03,1.3-3.61
		c0.02-0.28,0.03-0.62,0.03-1.03s-0.01-0.75-0.03-1.03c-0.05-1.59-0.49-2.8-1.3-3.62c-0.81-0.82-1.87-1.23-3.16-1.23
		s-2.35,0.41-3.16,1.23c-0.81,0.82-1.25,2.03-1.3,3.62c-0.02,0.28-0.03,0.62-0.03,1.03s0.01,0.75,0.03,1.03
		c0.06,1.57,0.49,2.77,1.3,3.61C945.05,347.19,946.11,347.6,947.4,347.6z"/>
	<path class="st0" d="M967.76,348.93c-0.19,0-0.33-0.06-0.45-0.17c-0.11-0.11-0.17-0.26-0.17-0.44v-13.17
		c0-0.18,0.05-0.34,0.17-0.46c0.11-0.12,0.26-0.18,0.45-0.18h0.44c0.18,0,0.34,0.06,0.46,0.18c0.12,0.12,0.18,0.27,0.18,0.46v1.28
		c0.33-0.65,0.81-1.13,1.44-1.44c0.63-0.31,1.41-0.47,2.33-0.47h1.03c0.18,0,0.33,0.06,0.44,0.17c0.11,0.11,0.17,0.26,0.17,0.44
		v0.39c0,0.18-0.06,0.33-0.17,0.44c-0.11,0.11-0.26,0.17-0.44,0.17h-1.19c-1.11,0-1.99,0.32-2.63,0.97s-0.97,1.53-0.97,2.63v8.6
		c0,0.18-0.06,0.33-0.18,0.44c-0.12,0.11-0.27,0.17-0.46,0.17H967.76z"/>
	<path class="st0" d="M987.17,348.93c-0.19,0-0.33-0.06-0.45-0.17c-0.11-0.11-0.17-0.26-0.17-0.44v-13.2c0-0.18,0.05-0.33,0.17-0.44
		c0.11-0.11,0.26-0.17,0.45-0.17h0.47c0.18,0,0.33,0.06,0.44,0.17c0.11,0.11,0.17,0.26,0.17,0.44v0.97
		c0.46-0.59,1.01-1.05,1.65-1.37c0.64-0.32,1.41-0.48,2.32-0.48c2.07,0,3.55,0.87,4.44,2.61c0.43-0.8,1.05-1.43,1.87-1.9
		c0.82-0.47,1.77-0.71,2.84-0.71c0.98,0,1.86,0.23,2.65,0.68c0.79,0.45,1.41,1.12,1.86,2.01c0.45,0.89,0.68,2,0.68,3.33v8.07
		c0,0.18-0.06,0.33-0.17,0.44c-0.11,0.11-0.26,0.17-0.45,0.17h-0.47c-0.19,0-0.33-0.06-0.45-0.17c-0.11-0.11-0.17-0.26-0.17-0.44
		v-7.79c0-1.22-0.18-2.17-0.53-2.84c-0.35-0.67-0.81-1.15-1.39-1.43c-0.57-0.28-1.19-0.42-1.86-0.42c-0.56,0-1.12,0.14-1.69,0.42
		c-0.57,0.28-1.05,0.75-1.43,1.43c-0.38,0.67-0.57,1.62-0.57,2.84v7.79c0,0.18-0.06,0.33-0.17,0.44c-0.11,0.11-0.26,0.17-0.44,0.17
		h-0.47c-0.19,0-0.33-0.06-0.45-0.17c-0.11-0.11-0.17-0.26-0.17-0.44v-7.79c0-1.22-0.18-2.17-0.55-2.84
		c-0.37-0.67-0.84-1.15-1.41-1.43c-0.57-0.28-1.17-0.42-1.8-0.42c-0.56,0-1.12,0.14-1.69,0.42c-0.57,0.28-1.05,0.75-1.43,1.43
		c-0.38,0.67-0.57,1.61-0.57,2.82v7.82c0,0.18-0.06,0.33-0.17,0.44c-0.11,0.11-0.26,0.17-0.44,0.17H987.17z"/>
	<path class="st0" d="M1024.56,349.21c-0.89,0-1.7-0.18-2.45-0.55c-0.75-0.37-1.35-0.86-1.82-1.48c-0.46-0.62-0.69-1.32-0.69-2.09
		c0-1.26,0.51-2.26,1.53-3.02c1.02-0.76,2.34-1.25,3.97-1.47l4.38-0.61V339c0-0.98-0.3-1.75-0.9-2.32c-0.6-0.56-1.56-0.85-2.87-0.85
		c-0.96,0-1.74,0.19-2.33,0.57c-0.59,0.38-1,0.87-1.22,1.48c-0.09,0.28-0.27,0.42-0.53,0.42h-0.44c-0.22,0-0.38-0.06-0.47-0.18
		c-0.09-0.12-0.14-0.26-0.14-0.43c0-0.26,0.1-0.58,0.29-0.97c0.19-0.39,0.49-0.77,0.9-1.15c0.41-0.38,0.93-0.7,1.58-0.96
		c0.65-0.26,1.43-0.39,2.36-0.39c1.09,0,1.99,0.15,2.7,0.44c0.71,0.3,1.27,0.68,1.66,1.15c0.4,0.47,0.68,0.99,0.85,1.57
		c0.17,0.57,0.25,1.14,0.25,1.69v9.24c0,0.18-0.06,0.33-0.17,0.44c-0.11,0.11-0.26,0.17-0.44,0.17h-0.47
		c-0.19,0-0.33-0.06-0.44-0.17c-0.11-0.11-0.17-0.26-0.17-0.44v-1.3c-0.22,0.33-0.54,0.67-0.94,1c-0.41,0.33-0.93,0.61-1.57,0.85
		C1026.32,349.09,1025.52,349.21,1024.56,349.21z M1024.84,347.6c0.85,0,1.63-0.18,2.33-0.55c0.7-0.37,1.26-0.94,1.68-1.71
		c0.42-0.77,0.62-1.73,0.62-2.9v-0.94l-3.58,0.5c-1.52,0.2-2.66,0.55-3.44,1.05c-0.78,0.5-1.16,1.13-1.16,1.89
		c0,0.61,0.18,1.11,0.53,1.5c0.35,0.39,0.8,0.68,1.35,0.87C1023.7,347.5,1024.26,347.6,1024.84,347.6z"/>
</g>
<g>
	<g>
		<g>
			<circle class="st1" cx="261.19" cy="261.91" r="10.75"/>
		</g>
	</g>
	<g>
		<linearGradient id="SVGID_1_" gradientUnits="userSpaceOnUse" x1="365.2359" y1="446.9654" x2="162.2265" y2="180.1531">
			<stop  offset="0" style="stop-color:#7500E5"/>
			<stop  offset="1" style="stop-color:#FE711A"/>
		</linearGradient>
		<path class="st3" d="M339.39,277.91l-35.12-12.4c-6.11-2.16-12.81,1.05-14.97,7.16c-2.16,6.11,1.05,12.81,7.16,14.97l35.12,12.4
			c2.6,0.92,3.03,3.04,3.06,4.23s-0.32,3.33-2.88,4.35L193.6,364.05c-9.1,3.65-15.47-1.83-17.21-3.6
			c-1.74-1.77-7.11-8.23-3.31-17.27l73.58-174.8c3.77-8.97,12.1-9.67,14.56-9.67c2.46,0,10.78,0.7,14.56,9.67l34.28,81.43
			c2.52,5.97,9.39,8.78,15.37,6.26c5.97-2.52,8.78-9.4,6.26-15.37l-34.28-81.43c-6.24-14.82-20.11-24.03-36.19-24.03
			c-16.08,0-29.95,9.21-36.19,24.03l-73.58,174.8c-6.27,14.89-3.13,31.31,8.2,42.83c7.63,7.76,17.55,11.85,27.79,11.85
			c4.96,0,10-0.96,14.89-2.92L340.5,330.4c10.94-4.39,17.85-14.84,17.6-26.63C357.85,291.99,350.51,281.84,339.39,277.91z"/>
		
			<linearGradient id="SVGID_00000064332558336370736010000017263500291430262165_" gradientUnits="userSpaceOnUse" x1="409.134" y1="413.5647" x2="206.1246" y2="146.7524">
			<stop  offset="0" style="stop-color:#7500E5"/>
			<stop  offset="1" style="stop-color:#FE711A"/>
		</linearGradient>
		<path style="fill:url(#SVGID_00000064332558336370736010000017263500291430262165_);" d="M387.16,372.5l-12.4-29.45
			c-2.52-5.97-9.4-8.78-15.37-6.26c-5.97,2.51-8.78,9.4-6.26,15.37l12.4,29.45c1.89,4.49,6.24,7.19,10.82,7.19
			c1.52,0,3.06-0.3,4.55-0.92C386.87,385.35,389.67,378.47,387.16,372.5z"/>
	</g>
</g>
</svg>
